<?xml version="1.0" encoding="utf-8"?>
<!-- Generator: Adobe Illustrator 24.0.1, SVG Export Plug-In . SVG Version: 6.00 Build 0)  -->
<svg version="1.1" id="图层_1" xmlns="http://www.w3.org/2000/svg" xmlns:xlink="http://www.w3.org/1999/xlink" x="0px" y="0px"
	 viewBox="0 0 1024 1024" style="enable-background:new 0 0 1024 1024;" xml:space="preserve">
<style type="text/css">
	.st0{fill:url(#SVGID_1_);}
	.st1{fill:url(#SVGID_2_);}
	.st2{fill:url(#SVGID_3_);}
	.st3{fill:url(#SVGID_4_);}
	.st4{fill:url(#SVGID_5_);}
	.st5{fill:url(#SVGID_6_);}
	.st6{fill:url(#SVGID_7_);}
	.st7{fill:url(#SVGID_8_);}
	.st8{fill:url(#SVGID_9_);}
	.st9{fill:url(#SVGID_10_);}
	.st10{fill:url(#SVGID_11_);}
	.st11{fill:url(#SVGID_12_);}
	.st12{fill:url(#SVGID_13_);}
	.st13{fill:url(#SVGID_14_);}
	.st14{fill:url(#SVGID_15_);}
	.st15{fill:url(#SVGID_16_);}
	.st16{fill:url(#SVGID_17_);}
	.st17{fill:url(#SVGID_18_);}
	.st18{fill:url(#SVGID_19_);}
	.st19{fill:url(#SVGID_20_);}
	.st20{fill:url(#SVGID_21_);}
	.st21{fill:url(#SVGID_22_);}
	.st22{fill:url(#SVGID_23_);}
	.st23{fill-rule:evenodd;clip-rule:evenodd;fill:#F5986A;}
	.st24{fill-rule:evenodd;clip-rule:evenodd;fill:#F8AD72;}
	.st25{fill-rule:evenodd;clip-rule:evenodd;}
	.st26{fill-rule:evenodd;clip-rule:evenodd;fill:#262A71;}
	.st27{fill-rule:evenodd;clip-rule:evenodd;fill:#2B3682;}
	.st28{fill-rule:evenodd;clip-rule:evenodd;fill:#B0D0FF;}
	.st29{fill-rule:evenodd;clip-rule:evenodd;fill:#EF8D61;}
	.st30{fill-rule:evenodd;clip-rule:evenodd;fill:#151145;}
	.st31{fill-rule:evenodd;clip-rule:evenodd;fill:#27327B;}
</style>
<linearGradient id="SVGID_1_" gradientUnits="userSpaceOnUse" x1="512.3846" y1="562.0317" x2="512.3846" y2="178.6433">
	<stop  offset="5.358273e-07" style="stop-color:#FFFFFF"/>
	<stop  offset="1" style="stop-color:#DBE3EE"/>
</linearGradient>
<path class="st0" d="M728.91,229.37v332.66H295.86c0.72-165.43,1.39-190.87,2.12-356.36h96.99c0.18,29.51,0.18,42.33,0,42.81v0.06
	c0,0,0.12-0.06,0.18-0.12v-0.18c0-8.71,7.01-15.72,15.72-15.72c8.71,0,15.72,7.01,15.72,15.72v9.31h69.29v-78.91h62.16v113.74
	c-0.06,0.24-0.06,0.42-0.06,0.67v38.27c0,5.62,4.53,10.16,10.16,10.16c5.56,0,10.1-4.53,10.1-10.16v-29.81
	c19.53-0.06,33.68-0.12,43.05-0.12c9.37,0,13.97,0.06,14.39,0.12c1.51-0.18,0-23.1,0-23.1h29.57v27.15c0,4.11,3.33,7.44,7.44,7.44
	c4.11,0,7.44-3.33,7.44-7.44v-76.19H728.91z"/>
<linearGradient id="SVGID_2_" gradientUnits="userSpaceOnUse" x1="512.3846" y1="845.3568" x2="512.3846" y2="493.2367">
	<stop  offset="0.4065" style="stop-color:#FFFFFF"/>
	<stop  offset="1" style="stop-color:#DAE4EF"/>
</linearGradient>
<ellipse class="st1" cx="512.38" cy="669.3" rx="370.98" ry="176.06"/>
<linearGradient id="SVGID_3_" gradientUnits="userSpaceOnUse" x1="737.6971" y1="769.8716" x2="588.2567" y2="511.0333">
	<stop  offset="0.0938" style="stop-color:#FFFFFF"/>
	<stop  offset="0.9362" style="stop-color:#BBCBE0"/>
</linearGradient>
<polygon class="st2" points="838.23,711.83 618.26,795.18 505.41,579.99 559.49,527.64 "/>
<g>
	<g>
		<linearGradient id="SVGID_4_" gradientUnits="userSpaceOnUse" x1="315.3266" y1="200.4086" x2="338.6186" y2="200.4086">
			<stop  offset="0" style="stop-color:#E7EDF5"/>
			<stop  offset="0.5658" style="stop-color:#B3C7DD"/>
		</linearGradient>
		<path class="st3" d="M326.97,212.05c-6.42,0-11.65-5.22-11.65-11.65s5.22-11.65,11.65-11.65s11.65,5.22,11.65,11.65
			S333.39,212.05,326.97,212.05z M326.97,195.24c-2.85,0-5.17,2.32-5.17,5.17c0,2.85,2.32,5.17,5.17,5.17
			c2.85,0,5.17-2.32,5.17-5.17C332.14,197.56,329.82,195.24,326.97,195.24z"/>
	</g>
	<g>
		<linearGradient id="SVGID_5_" gradientUnits="userSpaceOnUse" x1="316.4582" y1="381.7095" x2="333.2736" y2="381.7095">
			<stop  offset="0" style="stop-color:#E7EDF5"/>
			<stop  offset="0.5658" style="stop-color:#B3C7DD"/>
		</linearGradient>
		<circle class="st4" cx="324.87" cy="381.71" r="8.41"/>
	</g>
	<g>
		<linearGradient id="SVGID_6_" gradientUnits="userSpaceOnUse" x1="631.6536" y1="487.5192" x2="666.8982" y2="487.5192">
			<stop  offset="0" style="stop-color:#E7EDF5"/>
			<stop  offset="0.5658" style="stop-color:#B3C7DD"/>
		</linearGradient>
		<circle class="st5" cx="649.28" cy="487.52" r="17.62"/>
	</g>
	<g>
		<linearGradient id="SVGID_7_" gradientUnits="userSpaceOnUse" x1="626.6089" y1="305.8921" x2="640.5126" y2="305.8921">
			<stop  offset="0" style="stop-color:#E7EDF5"/>
			<stop  offset="0.5658" style="stop-color:#B3C7DD"/>
		</linearGradient>
		<circle class="st6" cx="633.56" cy="305.89" r="6.95"/>
	</g>
	<g>
		<linearGradient id="SVGID_8_" gradientUnits="userSpaceOnUse" x1="727.7505" y1="250.8476" x2="739.7234" y2="250.8476">
			<stop  offset="0" style="stop-color:#E7EDF5"/>
			<stop  offset="0.5658" style="stop-color:#B3C7DD"/>
		</linearGradient>
		<circle class="st7" cx="733.74" cy="250.85" r="5.99"/>
	</g>
	<g>
		<linearGradient id="SVGID_9_" gradientUnits="userSpaceOnUse" x1="789.5316" y1="387.0005" x2="806.0923" y2="387.0005">
			<stop  offset="0" style="stop-color:#E7EDF5"/>
			<stop  offset="0.5658" style="stop-color:#B3C7DD"/>
		</linearGradient>
		<circle class="st8" cx="797.81" cy="387" r="8.28"/>
	</g>
	<g>
		<linearGradient id="SVGID_10_" gradientUnits="userSpaceOnUse" x1="671.8237" y1="621.5208" x2="687.4766" y2="621.5208">
			<stop  offset="0" style="stop-color:#E7EDF5"/>
			<stop  offset="0.5658" style="stop-color:#B3C7DD"/>
		</linearGradient>
		<circle class="st9" cx="679.65" cy="621.52" r="7.83"/>
	</g>
	<g>
		<linearGradient id="SVGID_11_" gradientUnits="userSpaceOnUse" x1="557.8334" y1="208.8168" x2="581.1254" y2="208.8168">
			<stop  offset="0" style="stop-color:#E7EDF5"/>
			<stop  offset="0.5658" style="stop-color:#B3C7DD"/>
		</linearGradient>
		<path class="st10" d="M569.48,220.46c-6.42,0-11.65-5.22-11.65-11.65s5.22-11.65,11.65-11.65s11.65,5.22,11.65,11.65
			S575.9,220.46,569.48,220.46z M569.48,203.65c-2.85,0-5.17,2.32-5.17,5.17c0,2.85,2.32,5.17,5.17,5.17c2.85,0,5.17-2.32,5.17-5.17
			C574.65,205.97,572.33,203.65,569.48,203.65z"/>
	</g>
	<g>
		<linearGradient id="SVGID_12_" gradientUnits="userSpaceOnUse" x1="441.6762" y1="666.5804" x2="464.9682" y2="666.5804">
			<stop  offset="0" style="stop-color:#E7EDF5"/>
			<stop  offset="0.5658" style="stop-color:#B3C7DD"/>
		</linearGradient>
		<path class="st11" d="M453.32,678.23c-6.42,0-11.65-5.22-11.65-11.65s5.22-11.65,11.65-11.65s11.65,5.22,11.65,11.65
			S459.74,678.23,453.32,678.23z M453.32,661.41c-2.85,0-5.17,2.32-5.17,5.17c0,2.85,2.32,5.17,5.17,5.17
			c2.85,0,5.17-2.32,5.17-5.17C458.49,663.73,456.17,661.41,453.32,661.41z"/>
	</g>
	<g>
		<linearGradient id="SVGID_13_" gradientUnits="userSpaceOnUse" x1="218.6769" y1="481.8491" x2="248.2595" y2="481.8491">
			<stop  offset="0" style="stop-color:#E7EDF5"/>
			<stop  offset="0.5658" style="stop-color:#B3C7DD"/>
		</linearGradient>
		<path class="st12" d="M244.71,485.4h-22.48c-1.96,0-3.55-1.59-3.55-3.55v0c0-1.96,1.59-3.55,3.55-3.55h22.48
			c1.96,0,3.55,1.59,3.55,3.55v0C248.26,483.81,246.67,485.4,244.71,485.4z"/>
	</g>
	<g>
		<linearGradient id="SVGID_14_" gradientUnits="userSpaceOnUse" x1="229.7781" y1="481.8491" x2="237.1582" y2="481.8491">
			<stop  offset="0" style="stop-color:#E7EDF5"/>
			<stop  offset="0.5658" style="stop-color:#B3C7DD"/>
		</linearGradient>
		<path class="st13" d="M229.78,492.95v-22.2c0-2.04,1.65-3.69,3.69-3.69l0,0c2.04,0,3.69,1.65,3.69,3.69v22.2
			c0,2.04-1.65,3.69-3.69,3.69l0,0C231.43,496.64,229.78,494.99,229.78,492.95z"/>
	</g>
	<g>
		<linearGradient id="SVGID_15_" gradientUnits="userSpaceOnUse" x1="227.8864" y1="331.9234" x2="247.0918" y2="331.9234">
			<stop  offset="0" style="stop-color:#E7EDF5"/>
			<stop  offset="0.5658" style="stop-color:#B3C7DD"/>
		</linearGradient>
		<path class="st14" d="M244.79,334.23h-14.6c-1.27,0-2.3-1.03-2.3-2.3l0,0c0-1.27,1.03-2.3,2.3-2.3h14.6c1.27,0,2.3,1.03,2.3,2.3
			l0,0C247.09,333.2,246.06,334.23,244.79,334.23z"/>
	</g>
	<g>
		<linearGradient id="SVGID_16_" gradientUnits="userSpaceOnUse" x1="235.0935" y1="331.9234" x2="239.8847" y2="331.9234">
			<stop  offset="0" style="stop-color:#E7EDF5"/>
			<stop  offset="0.5658" style="stop-color:#B3C7DD"/>
		</linearGradient>
		<path class="st15" d="M235.09,339.13v-14.41c0-1.32,1.07-2.4,2.4-2.4l0,0c1.32,0,2.4,1.07,2.4,2.4v14.41c0,1.32-1.07,2.4-2.4,2.4
			l0,0C236.17,341.53,235.09,340.45,235.09,339.13z"/>
	</g>
	<g>
		<linearGradient id="SVGID_17_" gradientUnits="userSpaceOnUse" x1="415.9072" y1="272.5284" x2="435.9187" y2="272.5284">
			<stop  offset="0" style="stop-color:#E7EDF5"/>
			<stop  offset="0.5658" style="stop-color:#B3C7DD"/>
		</linearGradient>
		<path class="st16" d="M435.92,290.28c-6.67-9.69-13.34-19.37-20.01-29.06c1.13-2.15,2.26-4.3,3.39-6.44
			c4.97,0.26,9.95,0.53,14.92,0.79C434.79,267.14,435.35,278.71,435.92,290.28z"/>
	</g>
	<g>
		<linearGradient id="SVGID_18_" gradientUnits="userSpaceOnUse" x1="399.0494" y1="285.3478" x2="428.5099" y2="285.3478">
			<stop  offset="0" style="stop-color:#E7EDF5"/>
			<stop  offset="0.5658" style="stop-color:#B3C7DD"/>
		</linearGradient>
		<path class="st17" d="M428.51,294.68c-9.25-1.7-18.49-3.41-27.74-5.11c-0.57-1.85-1.15-3.71-1.73-5.56
			c2.96-2.66,5.92-5.33,8.88-7.99C414.79,282.24,421.65,288.46,428.51,294.68z"/>
	</g>
	<g>
		<linearGradient id="SVGID_19_" gradientUnits="userSpaceOnUse" x1="440.5085" y1="272.2197" x2="455.16" y2="272.2197">
			<stop  offset="0" style="stop-color:#E7EDF5"/>
			<stop  offset="0.5658" style="stop-color:#B3C7DD"/>
		</linearGradient>
		<path class="st18" d="M440.51,285.67c0.69-8.3,1.39-16.6,2.08-24.9c1.58-0.67,3.17-1.34,4.75-2.01c2.61,2.38,5.21,4.76,7.82,7.13
			C450.28,272.49,445.39,279.08,440.51,285.67z"/>
	</g>
</g>
<linearGradient id="SVGID_20_" gradientUnits="userSpaceOnUse" x1="565.1363" y1="293.692" x2="425.7305" y2="535.1499">
	<stop  offset="0" style="stop-color:#CFDBEA"/>
	<stop  offset="1" style="stop-color:#AEC3DA"/>
</linearGradient>
<path class="st19" d="M638.49,339.16L638.49,339.16c-34.69-33.67-90.93-33.67-125.62,0l-6.85,6.65l-6.85-6.65
	c-34.69-33.67-90.93-33.67-125.62,0l0,0c-32.39,31.44-32.39,82.4,0,113.84l132.31,128.42l0.16-0.15l0.16,0.15l132.31-128.42
	C670.88,421.56,670.88,370.59,638.49,339.16z"/>
<linearGradient id="SVGID_21_" gradientUnits="userSpaceOnUse" x1="446.3061" y1="299.4377" x2="582.3899" y2="535.1418">
	<stop  offset="0" style="stop-color:#E7EDF5"/>
	<stop  offset="0.5658" style="stop-color:#B3C7DD"/>
</linearGradient>
<path class="st20" d="M633.32,343.82L633.32,343.82c-33.86-32.87-88.76-32.87-122.63,0l-6.68,6.49l-6.68-6.49
	c-33.86-32.87-88.76-32.87-122.63,0l0,0c-31.62,30.69-31.62,80.44,0,111.12l129.16,125.36l0.15-0.15l0.15,0.15l129.16-125.36
	C664.94,424.26,664.94,374.51,633.32,343.82z"/>
<linearGradient id="SVGID_22_" gradientUnits="userSpaceOnUse" x1="574.2817" y1="507.0572" x2="616.4727" y2="580.1342">
	<stop  offset="0" style="stop-color:#CFDBEA"/>
	<stop  offset="1" style="stop-color:#9BB9DA"/>
</linearGradient>
<path class="st21" d="M632.26,520.82L632.26,520.82c-10.5-10.19-27.52-10.19-38.02,0l-2.07,2.01l-2.07-2.01
	c-10.5-10.19-27.52-10.19-38.02,0l0,0c-9.8,9.51-9.8,24.94,0,34.45l40.04,38.87l0.05-0.05l0.05,0.05l40.04-38.87
	C642.07,545.76,642.07,530.33,632.26,520.82z"/>
<linearGradient id="SVGID_23_" gradientUnits="userSpaceOnUse" x1="573.7688" y1="511.1908" x2="614.9544" y2="582.5264">
	<stop  offset="0" style="stop-color:#E7EDF5"/>
	<stop  offset="0.5658" style="stop-color:#B3C7DD"/>
</linearGradient>
<path class="st22" d="M630.37,524.62L630.37,524.62c-10.25-9.95-26.86-9.95-37.11,0l-2.02,1.96l-2.02-1.96
	c-10.25-9.95-26.86-9.95-37.11,0l0,0c-9.57,9.29-9.57,24.34,0,33.63l39.09,37.94l0.05-0.04l0.05,0.04l39.09-37.94
	C639.94,548.97,639.94,533.91,630.37,524.62z"/>
<g>
	<path id="圆角矩形-5_16_" class="st23" d="M607.84,266.65c1.73,0,3.14,1.52,3.14,3.4v10.46c0,1.88-1.4,3.4-3.14,3.4
		c-1.73,0-3.14-1.52-3.14-3.4v-10.46C604.7,268.17,606.11,266.65,607.84,266.65z"/>
	<path id="Combined-shape-564_16_" class="st24" d="M603.66,260.9c5.6-0.38,6.46,3.35,6.31,6.22c0.3-0.25,0.67-0.49,1.01-0.47
		c1.16,0.07,1.05,1.57,1.05,1.57s0.15,0.62-0.52,1.57c-0.5,0.72-1.9,1.3-2.42,1.5l-0.2,0.6c0,0-0.83,1.77-1.57,2.61
		c-1.04,1.19-1.57,1.57-1.57,1.57s-1,0.77-2.09,1.05c-1,0.25-2.09,0-2.09,0s-1.32-0.16-1.57-2.09c-0.15-1.19-0.21-2.68-0.21-4.16
		l0-0.37c0.02-2.81,0.21-5.41,0.21-5.41S600.33,261.12,603.66,260.9z"/>
	<path id="形状-17_16_" class="st25" d="M605.75,265.6c0,0-3.42,0.65-5.23,0c-1.85-0.66-2.09-2.61-2.09-2.61s-0.05-1.46,0.52-2.61
		c0.45-0.91,1.57-1.57,1.57-1.57s0.95-0.7,2.09-0.52c0.91,0.14,1.57,1.05,1.57,1.05s1.19,1.18,2.09,1.57c0.93,0.4,2.09,0,2.09,0
		s1.82-0.42,3.14,1.05c2,2.23,1.57,5.23,1.57,5.23s-0.33,1.95-1.05,3.66c-0.58,1.4-1.57,2.09-1.57,2.09s-0.52,0.38-1.05,0
		c-0.59-0.43,0-1.05,0-1.05l0.52-1.05c0,0,2.06,0,2.09-3.14c0.01-0.52-1.05-0.52-1.05-0.52s-0.6-0.01-1.05,0.52
		c-0.25,0.29-0.52,1.57-0.52,1.57s-0.22-2.55-1.05-3.14C607.37,265.42,605.75,265.6,605.75,265.6z"/>
	<path id="形状-30-拷贝_16_" class="st26" d="M566.88,331.69l-0.19,5.75l-15.68-0.52c0,0-0.09-1.74,1.67-3.08
		c1.76-1.34,5.26-0.87,5.26-0.87s1.22,0.1,2.11-0.45c0.69-0.43,1.08-1.01,1.08-1.01L566.88,331.69z"/>
	<path id="形状-30_16_" class="st27" d="M583.89,333.88v5.75H568.2c0,0-0.15-1.73,1.57-3.14c1.71-1.4,5.23-1.05,5.23-1.05
		s1.22,0.06,2.09-0.52c0.67-0.45,1.05-1.05,1.05-1.05H583.89z"/>
	<path class="st28" d="M621.96,324.42v-36.33c0,0,0.04-1.99-1.04-3.66c-1.07-1.66-3.14-2.62-3.14-2.62l-6.8-3.66
		c0,0-0.57,1.5-1.57,2.61c-1.31,1.46-3.14,2.62-3.14,2.62s-0.7-0.36-1.04-1.05c-0.44-0.86-0.53-2.09-0.53-2.09s-3.81,0.34-6.27,2.62
		c-2.26,2.09-2.62,4.7-2.62,4.7V306v5.54v11.48v1.06c0.59,0.32,1.15,0.58,1.66,0.82c6.29,2.92,9.12,2.26,9.98,2.02
		c0.79-0.22,1.5-0.53,2.14-0.9c1.36,0.96,2.59,1.76,3.75,2.33h6.37L621.96,324.42z"/>
	<path id="形状-26_12_" class="st29" d="M634.07,320.6c0,0,2.09,1.64,2.74,2.48c0.54,0.69-1.02,0.58-1.02,0.58
		s-0.06,0.44,0.58,1.02c0.27,0.25,1.36,0.81,1.62,0.96c0.44,0.25,0.55,0.5,0.55,0.5s0.9,1.92-2.5,2.22
		c-1.89,0.17-6.45-3.34-6.45-3.34L634.07,320.6z"/>
	<path class="st28" d="M621.13,285.26c4.33,11.65,8.65,23.31,12.98,34.96c-1.62,0.87-3.23,1.73-4.85,2.6
		c-2.87-7.33-5.73-14.65-8.6-21.98C620.83,295.65,620.98,290.45,621.13,285.26z"/>
	<path class="st30" d="M613.8,321.9c-0.66,1.04-2.03,2.89-4.21,4.12c-0.64,0.37-1.35,0.68-2.14,0.9c-0.86,0.24-3.69,0.9-9.98-2.02
		c-0.51-0.24-1.07-0.5-1.66-0.82c-0.16-0.08-0.33-0.16-0.5-0.26c-2.23-1.2-4.92-2.92-7.74-5.39c-0.95-0.83-1.92-1.75-2.9-2.76
		c-1.34,2.21-2.96,4.59-4.91,7.04c-3.32,4.17-6.73,7.43-9.75,9.92c-2.5-1.02-5-2.04-7.5-3.05c6.77-7.81,13.54-15.62,20.31-23.43
		c3.21,1.14,6.62,2.48,10.18,4.09c0.93,0.41,1.86,0.84,2.81,1.3c0.19,0.09,0.38,0.18,0.57,0.27
		C603.12,315.06,608.93,318.57,613.8,321.9z"/>
	<path class="st31" d="M621.96,324.42c0,0.5-0.08,0.99-0.24,1.46c-0.41,1.17-1.27,1.98-2.01,2.47c-0.66,0.46-1.23,0.66-1.29,0.69
		c-1.59,0.56-3.23,0.23-5.08-0.69c-1.16-0.57-2.39-1.37-3.75-2.33c-0.83-0.58-1.71-1.22-2.64-1.91c-2.14-1.58-4.97-3.89-8-7.07
		c-0.82,1.85-1.85,3.87-3.14,5.98c-0.16,0.27-0.32,0.53-0.5,0.8c-0.14,0.23-0.28,0.45-0.43,0.68c-3.29,5-6.92,8.67-9.93,11.23
		c-2.43-0.92-4.87-1.85-7.3-2.77c0.59-0.74,1.18-1.49,1.77-2.23c2.71-4.1,5.43-8.2,8.15-12.3c1.81-2.73,3.62-5.46,5.43-8.19
		c0.94-1.42,1.87-2.83,2.81-4.24c0.43-0.65,0.87-1.31,1.3-1.96c6.42,1.76,10.92,4.5,13.69,6.54
		C612.14,311.56,621.96,318.75,621.96,324.42z"/>
</g>
</svg>
