<?xml version="1.0" encoding="utf-8"?>
<!-- Generator: Adobe Illustrator 24.0.1, SVG Export Plug-In . SVG Version: 6.00 Build 0)  -->
<svg version="1.1" id="图层_1" xmlns="http://www.w3.org/2000/svg" xmlns:xlink="http://www.w3.org/1999/xlink" x="0px" y="0px"
	 viewBox="0 0 1024 1024" style="enable-background:new 0 0 1024 1024;" xml:space="preserve">
<style type="text/css">
	.st0{fill:url(#SVGID_1_);}
	.st1{fill:url(#SVGID_2_);}
	.st2{fill:url(#SVGID_3_);}
	.st3{fill:url(#SVGID_4_);}
	.st4{fill:url(#SVGID_5_);}
	.st5{fill:url(#SVGID_6_);}
	.st6{fill:url(#SVGID_7_);}
	.st7{fill:url(#SVGID_8_);}
	.st8{fill:url(#SVGID_9_);}
	.st9{fill:url(#SVGID_10_);}
	.st10{fill:url(#SVGID_11_);}
	.st11{fill:url(#SVGID_12_);}
	.st12{fill:url(#SVGID_13_);}
	.st13{fill:url(#SVGID_14_);}
	.st14{fill:url(#SVGID_15_);}
	.st15{fill:url(#SVGID_16_);}
	.st16{fill:url(#SVGID_17_);}
	.st17{fill:url(#SVGID_18_);}
	.st18{fill:url(#SVGID_19_);}
	.st19{fill:url(#SVGID_20_);}
	.st20{fill-rule:evenodd;clip-rule:evenodd;fill:#F5986A;}
	.st21{fill-rule:evenodd;clip-rule:evenodd;fill:#F8AD72;}
	.st22{fill-rule:evenodd;clip-rule:evenodd;}
	.st23{fill-rule:evenodd;clip-rule:evenodd;fill:#262A71;}
	.st24{fill-rule:evenodd;clip-rule:evenodd;fill:#151145;}
	.st25{fill-rule:evenodd;clip-rule:evenodd;fill:#27327B;}
	.st26{fill-rule:evenodd;clip-rule:evenodd;fill:#2B3682;}
	.st27{fill-rule:evenodd;clip-rule:evenodd;fill:#B0D0FF;}
	.st28{fill-rule:evenodd;clip-rule:evenodd;fill:#73B1EF;}
	.st29{fill-rule:evenodd;clip-rule:evenodd;fill:#EF8D61;}
	.st30{fill:#E9F4FF;stroke:#6A9CD8;stroke-miterlimit:10;}
	.st31{fill:none;stroke:#6A9CD8;stroke-miterlimit:10;}
	.st32{fill-rule:evenodd;clip-rule:evenodd;fill:#F48D67;}
	.st33{fill:url(#SVGID_21_);}
	.st34{fill:url(#SVGID_22_);}
	.st35{fill:url(#SVGID_23_);}
	.st36{fill:url(#SVGID_24_);}
	.st37{fill:url(#SVGID_25_);}
	.st38{fill:url(#SVGID_26_);}
	.st39{fill:url(#SVGID_27_);}
</style>
<linearGradient id="SVGID_1_" gradientUnits="userSpaceOnUse" x1="513.2308" y1="561.7625" x2="513.2308" y2="178.374">
	<stop  offset="5.358273e-07" style="stop-color:#FFFFFF"/>
	<stop  offset="1" style="stop-color:#DBE3EE"/>
</linearGradient>
<path class="st0" d="M729.76,229.1v332.66H296.7c0.72-165.43,1.39-190.87,2.12-356.36h96.99c0.18,29.51,0.18,42.33,0,42.81v0.06
	c0,0,0.12-0.06,0.18-0.12v-0.18c0-8.71,7.01-15.72,15.72-15.72c8.71,0,15.72,7.01,15.72,15.72v9.31h69.29v-78.91h62.16v113.74
	c-0.06,0.24-0.06,0.42-0.06,0.67v38.27c0,5.62,4.53,10.16,10.16,10.16c5.56,0,10.1-4.53,10.1-10.16v-29.81
	c19.53-0.06,33.68-0.12,43.05-0.12c9.37,0,13.97,0.06,14.39,0.12c1.51-0.18,0-23.1,0-23.1h29.57v27.15c0,4.11,3.33,7.44,7.44,7.44
	c4.11,0,7.44-3.33,7.44-7.44V229.1H729.76z"/>
<linearGradient id="SVGID_2_" gradientUnits="userSpaceOnUse" x1="513.2308" y1="845.0875" x2="513.2308" y2="492.9675">
	<stop  offset="0.4065" style="stop-color:#FFFFFF"/>
	<stop  offset="1" style="stop-color:#DAE4EF"/>
</linearGradient>
<ellipse class="st1" cx="513.23" cy="669.03" rx="370.98" ry="176.06"/>
<linearGradient id="SVGID_3_" gradientUnits="userSpaceOnUse" x1="722.6168" y1="776.9316" x2="567.0724" y2="507.5209">
	<stop  offset="0.0938" style="stop-color:#FFFFFF"/>
	<stop  offset="0.9362" style="stop-color:#BBCBE0"/>
</linearGradient>
<polygon class="st2" points="842.12,707.93 578.6,803.47 459.11,569.85 515.97,556.98 "/>
<linearGradient id="SVGID_4_" gradientUnits="userSpaceOnUse" x1="384.6279" y1="721.9215" x2="336.2982" y2="638.212">
	<stop  offset="0" style="stop-color:#FFFFFF;stop-opacity:0"/>
	<stop  offset="1" style="stop-color:#9DB9E0"/>
</linearGradient>
<polygon class="st3" points="405.45,709.9 357.64,723.26 332.33,640.5 346.89,637.09 "/>
<g>
	<g>
		<linearGradient id="SVGID_5_" gradientUnits="userSpaceOnUse" x1="316.1728" y1="200.1394" x2="339.4648" y2="200.1394">
			<stop  offset="0" style="stop-color:#E7EDF5"/>
			<stop  offset="0.5658" style="stop-color:#B3C7DD"/>
		</linearGradient>
		<path class="st4" d="M327.82,211.79c-6.42,0-11.65-5.22-11.65-11.65s5.22-11.65,11.65-11.65s11.65,5.22,11.65,11.65
			S334.24,211.79,327.82,211.79z M327.82,194.97c-2.85,0-5.17,2.32-5.17,5.17c0,2.85,2.32,5.17,5.17,5.17
			c2.85,0,5.17-2.32,5.17-5.17C332.99,197.29,330.67,194.97,327.82,194.97z"/>
	</g>
	<g>
		<linearGradient id="SVGID_6_" gradientUnits="userSpaceOnUse" x1="317.3044" y1="381.4402" x2="334.1198" y2="381.4402">
			<stop  offset="0" style="stop-color:#E7EDF5"/>
			<stop  offset="0.5658" style="stop-color:#B3C7DD"/>
		</linearGradient>
		<circle class="st5" cx="325.71" cy="381.44" r="8.41"/>
	</g>
	<g>
		<linearGradient id="SVGID_7_" gradientUnits="userSpaceOnUse" x1="632.4998" y1="487.25" x2="667.7443" y2="487.25">
			<stop  offset="0" style="stop-color:#E7EDF5"/>
			<stop  offset="0.5658" style="stop-color:#B3C7DD"/>
		</linearGradient>
		<circle class="st6" cx="650.12" cy="487.25" r="17.62"/>
	</g>
	<g>
		<linearGradient id="SVGID_8_" gradientUnits="userSpaceOnUse" x1="627.4551" y1="305.6229" x2="641.3587" y2="305.6229">
			<stop  offset="0" style="stop-color:#E7EDF5"/>
			<stop  offset="0.5658" style="stop-color:#B3C7DD"/>
		</linearGradient>
		<circle class="st7" cx="634.41" cy="305.62" r="6.95"/>
	</g>
	<g>
		<linearGradient id="SVGID_9_" gradientUnits="userSpaceOnUse" x1="728.5967" y1="250.5784" x2="740.5696" y2="250.5784">
			<stop  offset="0" style="stop-color:#E7EDF5"/>
			<stop  offset="0.5658" style="stop-color:#B3C7DD"/>
		</linearGradient>
		<circle class="st8" cx="734.58" cy="250.58" r="5.99"/>
	</g>
	<g>
		<linearGradient id="SVGID_10_" gradientUnits="userSpaceOnUse" x1="790.3777" y1="386.7312" x2="806.9385" y2="386.7312">
			<stop  offset="0" style="stop-color:#E7EDF5"/>
			<stop  offset="0.5658" style="stop-color:#B3C7DD"/>
		</linearGradient>
		<circle class="st9" cx="798.66" cy="386.73" r="8.28"/>
	</g>
	<g>
		<linearGradient id="SVGID_11_" gradientUnits="userSpaceOnUse" x1="672.6699" y1="621.2515" x2="688.3228" y2="621.2515">
			<stop  offset="0" style="stop-color:#E7EDF5"/>
			<stop  offset="0.5658" style="stop-color:#B3C7DD"/>
		</linearGradient>
		<circle class="st10" cx="680.5" cy="621.25" r="7.83"/>
	</g>
	<g>
		<linearGradient id="SVGID_12_" gradientUnits="userSpaceOnUse" x1="558.6796" y1="208.5476" x2="581.9716" y2="208.5476">
			<stop  offset="0" style="stop-color:#E7EDF5"/>
			<stop  offset="0.5658" style="stop-color:#B3C7DD"/>
		</linearGradient>
		<path class="st11" d="M570.33,220.19c-6.42,0-11.65-5.22-11.65-11.65s5.22-11.65,11.65-11.65s11.65,5.22,11.65,11.65
			S576.75,220.19,570.33,220.19z M570.33,203.38c-2.85,0-5.17,2.32-5.17,5.17c0,2.85,2.32,5.17,5.17,5.17
			c2.85,0,5.17-2.32,5.17-5.17C575.5,205.7,573.18,203.38,570.33,203.38z"/>
	</g>
	<g>
		<linearGradient id="SVGID_13_" gradientUnits="userSpaceOnUse" x1="442.5224" y1="666.3112" x2="465.8144" y2="666.3112">
			<stop  offset="0" style="stop-color:#E7EDF5"/>
			<stop  offset="0.5658" style="stop-color:#B3C7DD"/>
		</linearGradient>
		<path class="st12" d="M454.17,677.96c-6.42,0-11.65-5.22-11.65-11.65s5.22-11.65,11.65-11.65s11.65,5.22,11.65,11.65
			S460.59,677.96,454.17,677.96z M454.17,661.14c-2.85,0-5.17,2.32-5.17,5.17c0,2.85,2.32,5.17,5.17,5.17
			c2.85,0,5.17-2.32,5.17-5.17C459.34,663.46,457.02,661.14,454.17,661.14z"/>
	</g>
	<g>
		<linearGradient id="SVGID_14_" gradientUnits="userSpaceOnUse" x1="219.523" y1="481.5798" x2="249.1057" y2="481.5798">
			<stop  offset="0" style="stop-color:#E7EDF5"/>
			<stop  offset="0.5658" style="stop-color:#B3C7DD"/>
		</linearGradient>
		<path class="st13" d="M245.56,485.13h-22.48c-1.96,0-3.55-1.59-3.55-3.55l0,0c0-1.96,1.59-3.55,3.55-3.55h22.48
			c1.96,0,3.55,1.59,3.55,3.55l0,0C249.11,483.54,247.52,485.13,245.56,485.13z"/>
	</g>
	<g>
		<linearGradient id="SVGID_15_" gradientUnits="userSpaceOnUse" x1="230.6243" y1="481.5798" x2="238.0044" y2="481.5798">
			<stop  offset="0" style="stop-color:#E7EDF5"/>
			<stop  offset="0.5658" style="stop-color:#B3C7DD"/>
		</linearGradient>
		<path class="st14" d="M230.62,492.68v-22.2c0-2.04,1.65-3.69,3.69-3.69h0c2.04,0,3.69,1.65,3.69,3.69v22.2
			c0,2.04-1.65,3.69-3.69,3.69h0C232.28,496.37,230.62,494.72,230.62,492.68z"/>
	</g>
	<g>
		<linearGradient id="SVGID_16_" gradientUnits="userSpaceOnUse" x1="228.7326" y1="331.6542" x2="247.9379" y2="331.6542">
			<stop  offset="0" style="stop-color:#E7EDF5"/>
			<stop  offset="0.5658" style="stop-color:#B3C7DD"/>
		</linearGradient>
		<path class="st15" d="M245.63,333.96h-14.6c-1.27,0-2.3-1.03-2.3-2.3l0,0c0-1.27,1.03-2.3,2.3-2.3h14.6c1.27,0,2.3,1.03,2.3,2.3
			l0,0C247.94,332.93,246.91,333.96,245.63,333.96z"/>
	</g>
	<g>
		<linearGradient id="SVGID_17_" gradientUnits="userSpaceOnUse" x1="235.9396" y1="331.6542" x2="240.7309" y2="331.6542">
			<stop  offset="0" style="stop-color:#E7EDF5"/>
			<stop  offset="0.5658" style="stop-color:#B3C7DD"/>
		</linearGradient>
		<path class="st16" d="M235.94,338.86v-14.41c0-1.32,1.07-2.4,2.4-2.4h0c1.32,0,2.4,1.07,2.4,2.4v14.41c0,1.32-1.07,2.4-2.4,2.4h0
			C237.01,341.26,235.94,340.18,235.94,338.86z"/>
	</g>
	<g>
		<linearGradient id="SVGID_18_" gradientUnits="userSpaceOnUse" x1="416.7534" y1="272.2591" x2="436.7649" y2="272.2591">
			<stop  offset="0" style="stop-color:#E7EDF5"/>
			<stop  offset="0.5658" style="stop-color:#B3C7DD"/>
		</linearGradient>
		<path class="st17" d="M436.76,290.01c-6.67-9.69-13.34-19.37-20.01-29.06c1.13-2.15,2.26-4.3,3.39-6.44
			c4.97,0.26,9.95,0.53,14.92,0.79C435.63,266.87,436.2,278.44,436.76,290.01z"/>
	</g>
	<g>
		<linearGradient id="SVGID_19_" gradientUnits="userSpaceOnUse" x1="399.8955" y1="285.0786" x2="429.356" y2="285.0786">
			<stop  offset="0" style="stop-color:#E7EDF5"/>
			<stop  offset="0.5658" style="stop-color:#B3C7DD"/>
		</linearGradient>
		<path class="st18" d="M429.36,294.41c-9.25-1.7-18.49-3.41-27.74-5.11c-0.57-1.85-1.15-3.71-1.73-5.56
			c2.96-2.66,5.92-5.33,8.88-7.99C415.64,281.97,422.5,288.19,429.36,294.41z"/>
	</g>
	<g>
		<linearGradient id="SVGID_20_" gradientUnits="userSpaceOnUse" x1="441.3547" y1="271.9504" x2="456.0061" y2="271.9504">
			<stop  offset="0" style="stop-color:#E7EDF5"/>
			<stop  offset="0.5658" style="stop-color:#B3C7DD"/>
		</linearGradient>
		<path class="st19" d="M441.35,285.41c0.69-8.3,1.39-16.6,2.08-24.9c1.58-0.67,3.17-1.34,4.75-2.01c2.61,2.38,5.21,4.76,7.82,7.13
			C451.12,272.22,446.24,278.81,441.35,285.41z"/>
	</g>
</g>
<path id="圆角矩形-5_22_" class="st20" d="M347.47,513.37c-1.73,0-3.14,1.52-3.14,3.4v10.46c0,1.88,1.4,3.4,3.14,3.4
	s3.14-1.52,3.14-3.4v-10.46C350.61,514.9,349.21,513.37,347.47,513.37z"/>
<path id="Combined-shape-564_22_" class="st21" d="M351.66,507.62c-5.6-0.38-6.46,3.35-6.31,6.22c-0.3-0.25-0.67-0.49-1.01-0.47
	c-1.16,0.07-1.05,1.57-1.05,1.57s-0.15,0.62,0.52,1.57c0.5,0.72,1.9,1.3,2.42,1.5l0.2,0.6c0,0,0.83,1.77,1.57,2.61
	c1.04,1.19,1.57,1.57,1.57,1.57s1,0.77,2.09,1.05c1,0.25,2.09,0,2.09,0s1.32-0.16,1.57-2.09c0.15-1.19,0.21-2.68,0.21-4.16l0-0.37
	c-0.02-2.81-0.21-5.41-0.21-5.41S354.99,507.85,351.66,507.62z"/>
<path id="形状-17_22_" class="st22" d="M349.57,512.33c0,0,3.42,0.65,5.23,0c1.85-0.66,2.09-2.61,2.09-2.61s0.05-1.46-0.52-2.61
	c-0.45-0.91-1.57-1.57-1.57-1.57s-0.95-0.7-2.09-0.52c-0.91,0.14-1.57,1.05-1.57,1.05s-1.19,1.18-2.09,1.57c-0.93,0.4-2.09,0-2.09,0
	s-1.82-0.42-3.14,1.05c-2,2.23-1.57,5.23-1.57,5.23s0.33,1.95,1.05,3.66c0.58,1.4,1.57,2.09,1.57,2.09s0.52,0.38,1.05,0
	c0.59-0.43,0-1.05,0-1.05l-0.52-1.05c0,0-2.06,0-2.09-3.14c-0.01-0.52,1.05-0.52,1.05-0.52s0.6-0.01,1.05,0.52
	c0.25,0.29,0.52,1.57,0.52,1.57s0.22-2.55,1.05-3.14C347.94,512.15,349.57,512.33,349.57,512.33z"/>
<path id="形状-30-拷贝_22_" class="st23" d="M335.58,635.73l-3.11,4.84l13.19,8.49c0,0,1.06-1.38,0.38-3.49
	c-0.68-2.11-3.83-3.71-3.83-3.71s-1.06-0.61-1.48-1.57c-0.32-0.74-0.31-1.45-0.31-1.45L335.58,635.73z"/>
<path id="形状-34_10_" class="st24" d="M359.5,575.08l2.61,25.63c0,0,0.11,0.78,0,1.57c-0.15,1.02-0.52,2.09-0.52,2.09
	l-18.83,36.08l-6.28-4.18c0,0,4.17-16.96,7.84-26.15c1.52-3.81,5.23-6.28,5.23-6.28s-4.85-9.27-7.32-17.78
	c-1.33-4.57-1.05-10.98-1.05-10.98H359.5z"/>
<path id="形状-29-拷贝_10_" class="st25" d="M354.8,574.04c0,0-0.48,15.99-2.09,31.9c-2,19.76-5.23,40.27-5.23,40.27h-5.75
	c0,0-2.83-18.96-3.14-31.9c-0.19-8.13,1.57-12.55,1.57-12.55s-1.8-7.82-3.14-15.69c-0.95-5.59-1.05-12.03-1.05-12.03H354.8z"/>
<path id="形状-30_22_" class="st26" d="M341.72,646.21v5.75h15.69c0,0,0.15-1.73-1.57-3.14c-1.71-1.4-5.23-1.05-5.23-1.05
	s-1.22,0.06-2.09-0.52c-0.67-0.45-1.05-1.05-1.05-1.05H341.72z"/>
<path id="形状-31_4_" class="st27" d="M359.5,534.29l4.71,14.64l9.94-11.51l4.71,4.18l-13.6,17.26c0,0-0.81,0.52-1.57,0.52
	c-0.81,0-1.57-0.52-1.57-0.52l-6.8-5.75L359.5,534.29z"/>
<path id="形状-24_8_" class="st27" d="M350.61,526.97c0,0-0.09,1.23-0.52,2.09c-0.34,0.68-1.05,1.05-1.05,1.05
	s-1.83-1.16-3.14-2.61c-1-1.11-1.57-2.61-1.57-2.61l-6.8,3.66c0,0-2.07,0.96-3.14,2.61c-1.08,1.67-1.05,3.66-1.05,3.66v40.27h26.15
	v-40.79c0,0-0.36-2.62-2.61-4.71C354.43,527.31,350.61,526.97,350.61,526.97z"/>
<polygon id="形状-33_4_" class="st28" points="340.15,540.57 336.49,550.5 345.38,564.62 341.2,569.33 333.35,566.19 
	333.35,560.96 333.35,540.57 "/>
<path id="形状-26_14_" class="st29" d="M345.7,565.14c0,0,2.09,1.64,2.74,2.48c0.54,0.69-1.02,0.58-1.02,0.58
	s-0.06,0.44,0.58,1.02c0.27,0.25,1.36,0.81,1.62,0.96c0.44,0.25,0.55,0.5,0.55,0.5s0.9,1.92-2.5,2.22
	c-1.89,0.17-6.45-3.34-6.45-3.34L345.7,565.14z"/>
<path id="形状-32_4_" class="st27" d="M333.88,531.68l-9.41,18.83c0,0-0.48,0.98-0.52,1.57c-0.08,1.09,0.52,1.57,0.52,1.57
	l16.73,16.21l4.71-5.23l-12.55-13.6l6.8-10.98"/>
<ellipse transform="matrix(0.1974 -0.9803 0.9803 0.1974 -209.9199 795.4181)" class="st30" cx="380.84" cy="525.92" rx="5.14" ry="2.41"/>
<line class="st31" x1="377.91" y1="536.9" x2="379.82" y2="530.96"/>
<path id="形状-26-拷贝_16_" class="st32" d="M374.5,537.55c0,0,1.48-2.21,2.27-2.92c0.65-0.59,0.65,0.97,0.65,0.97
	s0.44,0.03,0.97-0.65c0.23-0.29,0.71-1.41,0.84-1.69c0.22-0.45,0.45-0.58,0.45-0.58s1.84-1.03,2.4,2.34
	c0.31,1.87-2.85,6.68-2.85,6.68L374.5,537.55z"/>
<linearGradient id="SVGID_21_" gradientUnits="userSpaceOnUse" x1="520.0027" y1="372.2707" x2="520.0027" y2="594.9797">
	<stop  offset="0" style="stop-color:#E7EDF5"/>
	<stop  offset="1" style="stop-color:#B3C7DD"/>
</linearGradient>
<path class="st33" d="M548.7,386.33c-23.54-14.19-61.69-21.26-76.04-3.54c-6.98,8.63-5.96,20.19-5.75,22.55
	c1.81,20.31,19.97,22.7,29.62,46.86c1.66,4.16,9.52,23.85,1.99,42.22c-6.19,15.08-16.29,13.49-28.73,32.71
	c-5.95,9.2-15.07,23.28-11.27,39.57c2.66,11.39,11.55,23.54,24.31,27.19c20.16,5.76,40.87-12.26,49.07-28.07
	c6.53-12.6,1.72-17.22,7.74-35.14c6.58-19.6,14.79-21.36,25.86-40.67c6.5-11.33,24.3-42.38,13.48-71.17
	C572.07,400.41,556.5,391.03,548.7,386.33z"/>
<linearGradient id="SVGID_22_" gradientUnits="userSpaceOnUse" x1="510.0561" y1="369.6182" x2="510.0561" y2="592.3272">
	<stop  offset="0" style="stop-color:#E7EDF5"/>
	<stop  offset="0.5658" style="stop-color:#B3C7DD"/>
</linearGradient>
<path class="st34" d="M538.75,383.68c-23.54-14.19-61.69-21.26-76.04-3.54c-6.98,8.63-5.96,20.19-5.75,22.55
	c1.81,20.31,19.97,22.7,29.62,46.86c1.66,4.16,9.52,23.85,1.99,42.22c-6.19,15.08-16.29,13.49-28.73,32.71
	c-5.95,9.2-15.07,23.28-11.27,39.57c2.66,11.39,11.55,23.54,24.31,27.19c20.16,5.76,40.87-12.26,49.07-28.07
	c6.53-12.6,1.72-17.22,7.74-35.14c6.58-19.6,14.79-21.36,25.86-40.67c6.5-11.33,24.3-42.38,13.48-71.17
	C562.12,397.76,546.56,388.38,538.75,383.68z"/>
<linearGradient id="SVGID_23_" gradientUnits="userSpaceOnUse" x1="464.6669" y1="303.4977" x2="464.6669" y2="360.1127">
	<stop  offset="0" style="stop-color:#CFDBEA"/>
	<stop  offset="1" style="stop-color:#AEC3DA"/>
</linearGradient>
<ellipse class="st35" cx="464.67" cy="331.81" rx="20.59" ry="28.31"/>
<linearGradient id="SVGID_24_" gradientUnits="userSpaceOnUse" x1="503.551" y1="315.8721" x2="503.551" y2="353.2826">
	<stop  offset="0" style="stop-color:#CFDBEA"/>
	<stop  offset="1" style="stop-color:#AEC3DA"/>
</linearGradient>
<ellipse class="st36" cx="503.55" cy="334.58" rx="14.86" ry="18.71"/>
<linearGradient id="SVGID_25_" gradientUnits="userSpaceOnUse" x1="532.4091" y1="326.3507" x2="532.4091" y2="357.292">
	<stop  offset="0" style="stop-color:#CFDBEA"/>
	<stop  offset="1" style="stop-color:#AEC3DA"/>
</linearGradient>
<path class="st37" d="M541.96,343.57c-1.55,8.49-7.09,14.59-12.36,13.62c-5.27-0.96-8.29-8.63-6.74-17.12
	c1.55-8.49,7.09-14.59,12.36-13.62S543.51,335.08,541.96,343.57z"/>
<linearGradient id="SVGID_26_" gradientUnits="userSpaceOnUse" x1="553.1847" y1="342.5049" x2="553.1847" y2="365.7487">
	<stop  offset="0" style="stop-color:#CFDBEA"/>
	<stop  offset="1" style="stop-color:#AEC3DA"/>
</linearGradient>
<path class="st38" d="M560.8,358.11c-3.15,6.03-9.12,9.13-13.33,6.93c-4.21-2.2-5.06-8.87-1.9-14.9c3.15-6.03,9.12-9.13,13.33-6.93
	C563.1,345.42,563.96,352.09,560.8,358.11z"/>
<linearGradient id="SVGID_27_" gradientUnits="userSpaceOnUse" x1="565.2659" y1="361.2637" x2="565.2659" y2="381.5563">
	<stop  offset="0" style="stop-color:#CFDBEA"/>
	<stop  offset="1" style="stop-color:#AEC3DA"/>
</linearGradient>
<path class="st39" d="M571.91,374.89c-2.75,5.26-7.96,7.97-11.64,6.05s-4.42-7.75-1.66-13.01c2.75-5.26,7.96-7.97,11.64-6.05
	C573.93,363.8,574.67,369.63,571.91,374.89z"/>
</svg>
